<svg width="56" height="56" viewBox="0 0 56 56" fill="none" xmlns="http://www.w3.org/2000/svg">
<rect width="56" height="56" rx="5" fill="#E3E3E3"/>
<g clip-path="url(#clip0_79_1264)">
<path d="M39.9008 29.5667C39.9675 29.0667 40.0008 28.55 40.0008 28C40.0008 27.4667 39.9675 26.9333 39.8842 26.4333L43.2675 23.8C43.5675 23.5667 43.6508 23.1167 43.4675 22.7833L40.2675 17.25C40.0675 16.8833 39.6508 16.7667 39.2842 16.8833L35.3008 18.4833C34.4675 17.85 33.5842 17.3167 32.6008 16.9167L32.0008 12.6833C31.9342 12.2833 31.6008 12 31.2008 12H24.8008C24.4008 12 24.0842 12.2833 24.0175 12.6833L23.4175 16.9167C22.4342 17.3167 21.5342 17.8667 20.7175 18.4833L16.7342 16.8833C16.3675 16.75 15.9508 16.8833 15.7508 17.25L12.5675 22.7833C12.3675 23.1333 12.4342 23.5667 12.7675 23.8L16.1508 26.4333C16.0675 26.9333 16.0008 27.4833 16.0008 28C16.0008 28.5167 16.0342 29.0667 16.1175 29.5667L12.7342 32.2C12.4342 32.4333 12.3508 32.8833 12.5342 33.2167L15.7342 38.75C15.9342 39.1167 16.3508 39.2333 16.7175 39.1167L20.7008 37.5167C21.5342 38.15 22.4175 38.6833 23.4008 39.0833L24.0008 43.3167C24.0842 43.7167 24.4008 44 24.8008 44H31.2008C31.6008 44 31.9342 43.7167 31.9842 43.3167L32.5842 39.0833C33.5675 38.6833 34.4675 38.15 35.2842 37.5167L39.2675 39.1167C39.6342 39.25 40.0508 39.1167 40.2508 38.75L43.4508 33.2167C43.6508 32.85 43.5675 32.4333 43.2508 32.2L39.9008 29.5667ZM28.0008 34C24.7008 34 22.0008 31.3 22.0008 28C22.0008 24.7 24.7008 22 28.0008 22C31.3008 22 34.0008 24.7 34.0008 28C34.0008 31.3 31.3008 34 28.0008 34Z" fill="#333333"/>
</g>
<defs>
<clipPath id="clip0_79_1264">
<rect x="8" y="8" width="40" height="40" rx="5" fill="white"/>
</clipPath>
</defs>
</svg>
