<svg width="196" height="58" viewBox="0 0 196 58" fill="none" xmlns="http://www.w3.org/2000/svg">
<path d="M75.1829 21.9084V10.5112H78.0196C78.9989 10.5112 79.8178 10.6547 80.4763 10.9417C81.1517 11.2119 81.692 11.6087 82.0973 12.1321C82.5025 12.6555 82.7895 13.2887 82.9584 14.0317C83.1441 14.7577 83.237 15.5766 83.237 16.4884C83.237 17.4846 83.1104 18.3289 82.8571 19.0211C82.6038 19.7134 82.2661 20.2791 81.844 20.7181C81.4219 21.1402 80.9407 21.4441 80.4003 21.6298C79.86 21.8156 79.3028 21.9084 78.7287 21.9084H75.1829ZM71.2065 7.16797V25.2516H79.0073C80.3919 25.2516 81.5907 25.0237 82.6038 24.5678C83.6338 24.095 84.4865 23.4534 85.1619 22.6429C85.8541 21.8325 86.3691 20.87 86.7068 19.7556C87.0445 18.6412 87.2134 17.4255 87.2134 16.1085C87.2134 14.6057 87.0023 13.2972 86.5802 12.1828C86.175 11.0684 85.6009 10.1397 84.8579 9.39677C84.1319 8.65384 83.2623 8.09664 82.2492 7.72517C81.253 7.3537 80.1724 7.16797 79.0073 7.16797H71.2065Z" fill="#54BC81"/>
<path d="M98.4134 17.2989H92.5628C92.5797 17.0456 92.6303 16.7586 92.7147 16.4378C92.816 16.1169 92.9765 15.813 93.196 15.526C93.4323 15.2389 93.7363 15.0025 94.1077 14.8168C94.4961 14.6142 94.9773 14.5129 95.5514 14.5129C96.4294 14.5129 97.0795 14.7493 97.5016 15.222C97.9406 15.6948 98.2445 16.3871 98.4134 17.2989ZM92.5628 19.5783H102.01C102.077 18.5652 101.993 17.5944 101.757 16.6657C101.52 15.737 101.132 14.9097 100.592 14.1836C100.068 13.4576 99.3927 12.8835 98.5653 12.4614C97.738 12.0224 96.7671 11.8029 95.6527 11.8029C94.6565 11.8029 93.7447 11.9802 92.9174 12.3347C92.1069 12.6893 91.4062 13.179 90.8152 13.8037C90.2242 14.4116 89.7683 15.1376 89.4475 15.9819C89.1267 16.8261 88.9663 17.7379 88.9663 18.7172C88.9663 19.7303 89.1183 20.659 89.4222 21.5032C89.743 22.3475 90.1905 23.0735 90.7645 23.6814C91.3386 24.2892 92.0393 24.762 92.8667 25.0997C93.6941 25.4205 94.6227 25.5809 95.6527 25.5809C97.1386 25.5809 98.4049 25.2432 99.4518 24.5678C100.499 23.8924 101.275 22.7696 101.782 21.1993H98.616C98.4978 21.6045 98.177 21.9929 97.6536 22.3643C97.1301 22.7189 96.5054 22.8962 95.7793 22.8962C94.7663 22.8962 93.9895 22.6345 93.4492 22.1111C92.9089 21.5876 92.6134 20.7434 92.5628 19.5783Z" fill="#54BC81"/>
<path d="M111.386 25.2516L115.819 12.1574H112.248L109.487 21.098H109.436L106.676 12.1574H102.902L107.385 25.2516H111.386Z" fill="#54BC81"/>
<path d="M120.999 10.1313V7.16797H117.403V10.1313H120.999ZM117.403 12.1574V25.2516H120.999V12.1574H117.403Z" fill="#54BC81"/>
<path d="M132.746 16.767H136.267C136.216 15.9228 136.013 15.1967 135.659 14.5889C135.304 13.9641 134.84 13.4491 134.266 13.0439C133.709 12.6218 133.067 12.3094 132.341 12.1068C131.632 11.9042 130.889 11.8029 130.112 11.8029C129.048 11.8029 128.103 11.9802 127.275 12.3347C126.448 12.6893 125.747 13.1874 125.173 13.829C124.599 14.4538 124.16 15.2052 123.856 16.0832C123.569 16.9443 123.426 17.8814 123.426 18.8945C123.426 19.8738 123.586 20.7772 123.907 21.6045C124.228 22.415 124.675 23.1157 125.249 23.7067C125.823 24.2976 126.516 24.762 127.326 25.0997C128.153 25.4205 129.057 25.5809 130.036 25.5809C131.775 25.5809 133.202 25.125 134.316 24.2132C135.431 23.3014 136.106 21.976 136.343 20.2368H132.873C132.755 21.0473 132.459 21.6974 131.986 22.187C131.53 22.6598 130.872 22.8962 130.011 22.8962C129.454 22.8962 128.981 22.7696 128.592 22.5163C128.204 22.263 127.892 21.9422 127.655 21.5539C127.436 21.1486 127.275 20.7012 127.174 20.2115C127.073 19.7219 127.022 19.2406 127.022 18.7679C127.022 18.2782 127.073 17.7885 127.174 17.2989C127.275 16.7923 127.444 16.3364 127.681 15.9312C127.934 15.5091 128.255 15.1714 128.643 14.9181C129.031 14.648 129.513 14.5129 130.087 14.5129C131.623 14.5129 132.51 15.2643 132.746 16.767Z" fill="#54BC81"/>
<path d="M147.188 17.2989H141.338C141.354 17.0456 141.405 16.7586 141.49 16.4378C141.591 16.1169 141.751 15.813 141.971 15.526C142.207 15.2389 142.511 15.0025 142.883 14.8168C143.271 14.6142 143.752 14.5129 144.326 14.5129C145.204 14.5129 145.854 14.7493 146.276 15.222C146.715 15.6948 147.019 16.3871 147.188 17.2989ZM141.338 19.5783H150.785C150.852 18.5652 150.768 17.5944 150.531 16.6657C150.295 15.737 149.907 14.9097 149.366 14.1836C148.843 13.4576 148.167 12.8835 147.34 12.4614C146.513 12.0224 145.542 11.8029 144.427 11.8029C143.431 11.8029 142.52 11.9802 141.692 12.3347C140.882 12.6893 140.181 13.179 139.59 13.8037C138.999 14.4116 138.543 15.1376 138.222 15.9819C137.902 16.8261 137.741 17.7379 137.741 18.7172C137.741 19.7303 137.893 20.659 138.197 21.5032C138.518 22.3475 138.965 23.0735 139.539 23.6814C140.113 24.2892 140.814 24.762 141.642 25.0997C142.469 25.4205 143.398 25.5809 144.427 25.5809C145.913 25.5809 147.18 25.2432 148.227 24.5678C149.273 23.8924 150.05 22.7696 150.557 21.1993H147.391C147.273 21.6045 146.952 21.9929 146.428 22.3643C145.905 22.7189 145.28 22.8962 144.554 22.8962C143.541 22.8962 142.764 22.6345 142.224 22.1111C141.684 21.5876 141.388 20.7434 141.338 19.5783Z" fill="#54BC81"/>
<path d="M71.2065 32.168V50.2516H75.1829V42.7801H82.7558V39.6902H75.1829V35.5112H83.9208V32.168H71.2065Z" fill="#54BC81"/>
<path d="M89.5378 35.1313V32.168H85.9413V35.1313H89.5378ZM85.9413 37.1574V50.2516H89.5378V37.1574H85.9413Z" fill="#54BC81"/>
<path d="M92.3697 37.1574V50.2516H95.9661V44.3504C95.9661 43.7594 96.0252 43.2107 96.1434 42.7041C96.2616 42.1976 96.4558 41.7586 96.7259 41.3871C97.013 40.9987 97.3845 40.6948 97.8403 40.4753C98.2962 40.2558 98.8534 40.1461 99.5119 40.1461C99.7315 40.1461 99.9594 40.1629 100.196 40.1967C100.432 40.2136 100.635 40.2389 100.804 40.2727V36.9295C100.517 36.8451 100.255 36.8029 100.018 36.8029C99.5626 36.8029 99.1236 36.8704 98.7015 37.0055C98.2794 37.1406 97.8826 37.3347 97.5111 37.588C97.1396 37.8244 96.8104 38.1199 96.5233 38.4745C96.2363 38.8122 96.0083 39.1836 95.8395 39.5889H95.7888V37.1574H92.3697Z" fill="#54BC81"/>
<path d="M102.315 37.1574V50.2516H105.911V42.6535C105.911 42.0118 106.004 41.4968 106.19 41.1085C106.376 40.7033 106.595 40.3993 106.849 40.1967C107.119 39.9772 107.389 39.8337 107.659 39.7662C107.946 39.6817 108.174 39.6395 108.343 39.6395C108.917 39.6395 109.348 39.7408 109.635 39.9434C109.938 40.1292 110.15 40.3825 110.268 40.7033C110.403 41.0241 110.479 41.3787 110.496 41.767C110.513 42.1385 110.521 42.5184 110.521 42.9067V50.2516H114.117V42.9574C114.117 42.5522 114.143 42.1554 114.193 41.767C114.261 41.3618 114.379 41.0072 114.548 40.7033C114.734 40.3825 114.979 40.1292 115.283 39.9434C115.603 39.7408 116.017 39.6395 116.524 39.6395C117.03 39.6395 117.427 39.7239 117.714 39.8928C118.018 40.0616 118.246 40.2896 118.398 40.5766C118.55 40.8637 118.643 41.2014 118.676 41.5897C118.71 41.9781 118.727 42.3917 118.727 42.8308V50.2516H122.324V41.4884C122.324 40.6442 122.205 39.9266 121.969 39.3356C121.733 38.7277 121.403 38.2381 120.981 37.8666C120.559 37.4951 120.052 37.225 119.462 37.0561C118.871 36.8873 118.229 36.8029 117.537 36.8029C116.625 36.8029 115.831 37.0224 115.156 37.4614C114.497 37.9004 113.974 38.4069 113.586 38.981C113.231 38.1705 112.708 37.6049 112.015 37.2841C111.34 36.9633 110.589 36.8029 109.761 36.8029C108.9 36.8029 108.132 36.9886 107.456 37.3601C106.798 37.7315 106.232 38.255 105.759 38.9304H105.709V37.1574H102.315Z" fill="#54BC81"/>
<path d="M140.135 50.2516L144.263 37.1574H140.565L138.159 46.022H138.109L135.88 37.1574H132.385L130.207 46.0473H130.156L127.75 37.1574H123.951L128.104 50.2516H131.828L134.056 41.4631H134.107L136.437 50.2516H140.135Z" fill="#54BC81"/>
<path d="M145.642 41.1845C145.693 40.3402 145.904 39.6395 146.276 39.0823C146.647 38.5251 147.12 38.0777 147.694 37.74C148.268 37.4023 148.91 37.1659 149.619 37.0308C150.345 36.8788 151.071 36.8029 151.797 36.8029C152.455 36.8029 153.122 36.8535 153.798 36.9548C154.473 37.0392 155.089 37.2165 155.647 37.4867C156.204 37.7569 156.66 38.1368 157.014 38.6264C157.369 39.0992 157.546 39.7324 157.546 40.526V47.339C157.546 47.93 157.58 48.4956 157.648 49.0359C157.715 49.5762 157.833 49.9815 158.002 50.2516H154.355C154.287 50.049 154.228 49.8464 154.178 49.6438C154.144 49.4243 154.119 49.2048 154.102 48.9853C153.528 49.5762 152.852 49.9899 152.076 50.2263C151.299 50.4627 150.505 50.5809 149.695 50.5809C149.07 50.5809 148.488 50.5049 147.947 50.353C147.407 50.201 146.934 49.9646 146.529 49.6438C146.124 49.323 145.803 48.9177 145.566 48.4281C145.347 47.9384 145.237 47.3559 145.237 46.6805C145.237 45.9376 145.364 45.3297 145.617 44.8569C145.887 44.3673 146.225 43.9789 146.63 43.6919C147.052 43.4048 147.525 43.1938 148.049 43.0587C148.589 42.9067 149.129 42.7885 149.669 42.7041C150.21 42.6197 150.742 42.5522 151.265 42.5015C151.788 42.4508 152.253 42.3749 152.658 42.2736C153.063 42.1722 153.384 42.0287 153.621 41.843C153.857 41.6404 153.967 41.3533 153.95 40.9819C153.95 40.5935 153.882 40.2896 153.747 40.0701C153.629 39.8337 153.46 39.6564 153.241 39.5382C153.038 39.4031 152.793 39.3187 152.506 39.2849C152.236 39.2343 151.94 39.209 151.62 39.209C150.91 39.209 150.353 39.3609 149.948 39.6648C149.543 39.9688 149.306 40.4753 149.239 41.1845H145.642ZM153.95 43.8438C153.798 43.9789 153.604 44.0887 153.367 44.1731C153.148 44.2406 152.903 44.2997 152.633 44.3504C152.379 44.401 152.109 44.4433 151.822 44.477C151.535 44.5108 151.248 44.553 150.961 44.6037C150.691 44.6543 150.421 44.7219 150.151 44.8063C149.897 44.8907 149.669 45.0089 149.467 45.1609C149.281 45.2959 149.129 45.4732 149.011 45.6927C148.893 45.9122 148.834 46.1908 148.834 46.5285C148.834 46.8493 148.893 47.1195 149.011 47.339C149.129 47.5585 149.29 47.7358 149.492 47.8709C149.695 47.9891 149.931 48.0735 150.201 48.1242C150.471 48.1748 150.75 48.2001 151.037 48.2001C151.746 48.2001 152.295 48.0819 152.683 47.8456C153.072 47.6092 153.359 47.3306 153.545 47.0098C153.73 46.6721 153.84 46.3344 153.874 45.9967C153.924 45.659 153.95 45.3888 153.95 45.1862V43.8438Z" fill="#54BC81"/>
<path d="M160.338 37.1574V50.2516H163.934V44.3504C163.934 43.7594 163.993 43.2107 164.112 42.7041C164.23 42.1976 164.424 41.7586 164.694 41.3871C164.981 40.9987 165.353 40.6948 165.808 40.4753C166.264 40.2558 166.822 40.1461 167.48 40.1461C167.7 40.1461 167.928 40.1629 168.164 40.1967C168.4 40.2136 168.603 40.2389 168.772 40.2727V36.9295C168.485 36.8451 168.223 36.8029 167.987 36.8029C167.531 36.8029 167.092 36.8704 166.67 37.0055C166.247 37.1406 165.851 37.3347 165.479 37.588C165.108 37.8244 164.778 38.1199 164.491 38.4745C164.204 38.8122 163.976 39.1836 163.808 39.5889H163.757V37.1574H160.338Z" fill="#54BC81"/>
<path d="M178.55 42.2989H172.7C172.717 42.0456 172.767 41.7586 172.852 41.4378C172.953 41.1169 173.114 40.813 173.333 40.526C173.569 40.2389 173.873 40.0025 174.245 39.8168C174.633 39.6142 175.114 39.5129 175.688 39.5129C176.566 39.5129 177.217 39.7493 177.639 40.222C178.078 40.6948 178.382 41.3871 178.55 42.2989ZM172.7 44.5783H182.147C182.214 43.5652 182.13 42.5944 181.894 41.6657C181.657 40.737 181.269 39.9097 180.729 39.1836C180.205 38.4576 179.53 37.8835 178.702 37.4614C177.875 37.0224 176.904 36.8029 175.79 36.8029C174.794 36.8029 173.882 36.9802 173.054 37.3347C172.244 37.6893 171.543 38.179 170.952 38.8037C170.361 39.4116 169.905 40.1376 169.585 40.9819C169.264 41.8261 169.103 42.7379 169.103 43.7172C169.103 44.7303 169.255 45.659 169.559 46.5032C169.88 47.3475 170.328 48.0735 170.902 48.6814C171.476 49.2892 172.176 49.762 173.004 50.0997C173.831 50.4205 174.76 50.5809 175.79 50.5809C177.276 50.5809 178.542 50.2432 179.589 49.5678C180.636 48.8924 181.412 47.7696 181.919 46.1993H178.753C178.635 46.6045 178.314 46.9929 177.791 47.3643C177.267 47.7189 176.642 47.8962 175.916 47.8962C174.903 47.8962 174.127 47.6345 173.586 47.1111C173.046 46.5876 172.751 45.7434 172.7 44.5783Z" fill="#54BC81"/>
<path d="M187.066 45.9967H183.647C183.681 46.8747 183.875 47.6092 184.229 48.2001C184.601 48.7742 185.065 49.2386 185.622 49.5931C186.196 49.9477 186.846 50.201 187.573 50.353C188.299 50.5049 189.041 50.5809 189.801 50.5809C190.544 50.5809 191.27 50.5049 191.979 50.353C192.706 50.2179 193.347 49.973 193.904 49.6185C194.462 49.2639 194.909 48.7995 195.247 48.2255C195.601 47.6345 195.779 46.9084 195.779 46.0473C195.779 45.4395 195.66 44.9329 195.424 44.5277C195.188 44.1056 194.875 43.7594 194.487 43.4893C194.099 43.2022 193.651 42.9743 193.145 42.8054C192.655 42.6366 192.148 42.4931 191.625 42.3749C191.118 42.2567 190.62 42.1469 190.131 42.0456C189.641 41.9443 189.202 41.8345 188.814 41.7164C188.442 41.5813 188.138 41.4124 187.902 41.2098C187.665 41.0072 187.547 40.7455 187.547 40.4247C187.547 40.1545 187.615 39.9434 187.75 39.7915C187.885 39.6226 188.045 39.496 188.231 39.4116C188.434 39.3271 188.653 39.2765 188.89 39.2596C189.126 39.2258 189.345 39.209 189.548 39.209C190.19 39.209 190.747 39.3356 191.22 39.5889C191.692 39.8252 191.954 40.2896 192.005 40.9819H195.424C195.356 40.1714 195.145 39.5044 194.791 38.981C194.453 38.4407 194.023 38.0101 193.499 37.6893C192.976 37.3685 192.376 37.1406 191.701 37.0055C191.042 36.8704 190.359 36.8029 189.649 36.8029C188.94 36.8029 188.248 36.8704 187.573 37.0055C186.897 37.1237 186.289 37.3432 185.749 37.664C185.209 37.9679 184.77 38.39 184.432 38.9304C184.111 39.4707 183.951 40.1629 183.951 41.0072C183.951 41.5813 184.069 42.0709 184.305 42.4762C184.542 42.8645 184.854 43.1938 185.242 43.4639C185.631 43.7172 186.07 43.9283 186.559 44.0971C187.066 44.2491 187.581 44.3842 188.104 44.5024C189.388 44.7725 190.384 45.0427 191.093 45.3128C191.819 45.583 192.182 45.9882 192.182 46.5285C192.182 46.8493 192.106 47.1195 191.954 47.339C191.802 47.5416 191.608 47.7105 191.372 47.8456C191.152 47.9637 190.899 48.0566 190.612 48.1242C190.342 48.1748 190.08 48.2001 189.827 48.2001C189.472 48.2001 189.126 48.1579 188.788 48.0735C188.467 47.9891 188.18 47.8624 187.927 47.6936C187.674 47.5079 187.463 47.2799 187.294 47.0098C187.142 46.7227 187.066 46.385 187.066 45.9967Z" fill="#54BC81"/>
<path d="M33.0649 50.4326C29.5733 50.4326 26.0817 50.4326 22.5902 50.4326C21.7043 50.4326 21.6468 50.5602 21.2014 51.6187C20.4832 53.3178 19.7225 55.0019 18.9042 56.6559C18.4588 57.5593 17.5029 57.7795 16.557 57.3391C16.1729 57.1415 15.8802 56.8029 15.7403 56.3942C15.6003 55.9856 15.624 55.5386 15.8063 55.147C16.2242 54.1086 16.6997 53.0901 17.1576 52.0666C18.4421 49.2056 19.73 46.3463 21.0212 43.4886C21.2058 43.0713 21.4165 42.666 21.6518 42.275C21.9621 41.7745 22.8354 41.5243 23.506 41.6995C23.8225 41.774 24.1071 41.9472 24.3185 42.1942C24.53 42.4412 24.6573 42.7491 24.6821 43.0733C24.7386 43.6135 24.6267 44.158 24.3618 44.6322C24.039 45.1877 23.8138 45.7983 23.5461 46.3838C23.2958 46.9118 23.3784 47.0294 23.9865 47.0294H35.85C37.8694 47.0294 39.8888 47.0294 41.9057 47.0294C45.8093 46.9994 48.5694 45.1777 50.2134 41.6544C50.5888 40.8411 50.781 39.9553 50.7765 39.0595C50.7765 34.1875 50.8265 29.3179 50.7765 24.4484C50.7464 22.0361 49.6354 20.0743 47.8212 18.4978C45.7518 16.7011 43.7074 14.8769 41.6404 13.0828C39.6386 11.3311 37.6042 9.62703 35.5998 7.88541C34.4562 6.88447 33.3477 5.84851 32.1266 4.96268C30.9526 4.12108 29.5778 3.60327 28.1404 3.46128C26.1989 3.27125 24.2489 3.72685 22.5927 4.75749C21.8595 5.19039 21.2464 5.79596 20.5908 6.35148C18.5314 8.12813 16.4369 9.85475 14.4075 11.6714C11.8076 13.9911 9.11009 16.2007 6.52517 18.5353C5.57595 19.3653 4.81945 20.3925 4.30857 21.5453C3.79768 22.698 3.54472 23.9484 3.5674 25.2091C3.5674 29.5807 3.5674 33.9522 3.5674 38.3213C3.54736 39.5636 3.8016 40.795 4.31199 41.9278C4.82237 43.0606 5.57634 44.0669 6.52016 44.8749C8.52203 46.6491 10.9668 47.2446 13.5968 46.9944C14.5627 46.9043 15.2633 46.2712 15.6712 45.3829C16.3518 43.894 16.9899 42.3801 17.6731 40.8987C18.0609 40.0629 19.1495 39.7251 20.0303 40.108C20.4152 40.3015 20.7103 40.6366 20.8535 41.043C20.9968 41.4493 20.977 41.8954 20.7985 42.2875C20.0052 44.1342 19.3321 46.041 18.2686 47.7576C17.8415 48.4897 17.2445 49.1083 16.5281 49.5612C15.8117 50.0142 14.9968 50.2882 14.1523 50.3601C12.6622 50.5346 11.1541 50.4797 9.68062 50.1974C7.44771 49.7441 5.39042 48.6633 3.75009 47.082C1.52552 44.93 0.224299 42.3025 0.056643 39.2071C-0.0559621 37.1352 0.0340999 35.0508 0.0340999 32.9738C0.0340999 30.1061 0.0341171 27.2385 0.0516334 24.3708C0.0691497 22.7092 0.552107 21.1678 1.27778 19.6639C2.27872 17.5669 3.93774 16.1006 5.66185 14.6592C7.78884 12.8701 9.83827 10.9883 11.9377 9.15409C13.7044 7.61766 15.491 6.09624 17.2802 4.58483C18.4838 3.56888 19.5974 2.44784 20.9737 1.63958C22.8854 0.518535 24.9299 0.0480933 27.1469 0.00305121C29.6116 -0.052681 32.033 0.656258 34.0784 2.03244C34.8091 2.54579 35.5038 3.10846 36.1578 3.71652C38.6051 5.841 41.0349 7.983 43.4796 10.1075C45.2988 11.684 47.1456 13.2279 48.9573 14.8119C50.296 15.983 51.6548 17.1315 52.5781 18.7055C53.7713 20.6891 54.3786 22.9699 54.3298 25.2841C54.2647 28.8375 54.3298 32.3908 54.3023 35.9441C54.2847 37.6632 54.4849 39.3923 54.052 41.0964C53.6431 42.9023 52.8256 44.5904 51.6623 46.031C50.6328 47.287 49.3658 48.3278 47.9338 49.0939C46.1409 50.0322 44.139 50.4997 42.1159 50.4526C39.1131 50.4276 36.0878 50.4526 33.0724 50.4526L33.0649 50.4326Z" fill="#54BC81"/>
<path d="M37.2842 25.1866C37.3354 27.4636 36.955 29.7298 36.1632 31.8653C35.9455 32.4609 36.0506 32.9989 36.2007 33.5694C36.6311 35.2059 36.5861 36.8074 35.8153 38.3564C35.475 39.042 35.1547 39.7427 34.877 40.4583C34.0412 42.6103 31.664 42.9181 30.2226 41.5043C29.3318 40.631 29.2817 40.626 28.2207 41.2966C27.0722 42.0198 25.9837 42.0123 24.7525 41.4468C23.0785 40.676 21.3844 39.9454 19.6978 39.1947C18.5117 38.6692 17.9987 37.7333 17.9311 36.4996C17.8736 35.4837 17.8386 35.4411 16.7901 35.4286C15.1411 35.4111 14.0901 34.6779 13.7222 33.3242C13.5861 32.8386 13.617 32.3213 13.8098 31.8553C14.4154 30.4039 14.9033 28.8975 15.8292 27.6013C16.5375 26.6452 17.5191 25.9263 18.6443 25.5394C18.8185 25.4742 18.9775 25.3739 19.1113 25.2448C19.2452 25.1157 19.3511 24.9604 19.4225 24.7887C20.5969 22.464 22.2455 20.4114 24.2621 18.7631C25.7005 17.5037 27.2992 16.4402 29.0165 15.6001C30.0675 15.0997 31.121 14.5767 32.2295 14.2689C33.5507 13.8985 34.7318 14.2864 35.4175 15.9404C36.5986 18.8707 37.3643 21.8985 37.2842 25.1866ZM33.9111 24.6286C33.9561 24.2432 33.6883 23.5425 33.6608 22.8144C33.5958 21.2654 33.0878 19.8116 32.6599 18.3452C32.5748 18.0624 32.4097 17.9423 32.0969 18.0674C31.4347 18.3106 30.7916 18.6025 30.1726 18.9407C29.0385 19.5795 27.9626 20.3163 26.9571 21.1428C25.2755 22.5341 23.7766 24.0855 22.8057 26.0499C22.1501 27.3761 21.3769 28.4621 19.8454 28.8225C19.37 28.9351 19.0672 29.353 18.7194 29.6783C18.2189 30.1437 18.2189 30.8569 17.8211 31.3724C17.5258 31.7627 17.6734 31.9229 18.1263 31.9229C18.6459 31.8937 19.1672 31.9298 19.6778 32.0305C20.4535 32.2307 21.1241 32.9163 21.1792 33.6019C21.2317 34.2025 21.3093 34.8031 21.3043 35.4036C21.3043 35.9366 21.5545 36.1868 22.01 36.3745C22.7757 36.6948 23.5364 37.0276 24.2871 37.3755C26.3215 38.3464 26.319 38.3514 28.0406 36.9475C28.9464 36.1968 30.0149 36.2369 30.8557 37.0476C31.126 37.2979 31.3837 37.5806 31.6389 37.8534C31.8466 38.0761 32.0318 38.0811 32.177 37.8033C32.78 36.6297 33.3856 35.4737 32.6223 34.1099C32.1594 33.2866 32.212 32.3933 32.5698 31.52C33.3981 29.4305 33.7009 27.221 33.9111 24.6286Z" fill="#54BC81"/>
<path d="M32.2995 27.7389C32.3321 30.2212 30.2326 32.1806 27.7803 32.153C27.1935 32.1479 26.6136 32.0263 26.0741 31.7953C25.5347 31.5643 25.0465 31.2286 24.6377 30.8075C24.229 30.3865 23.9079 29.8884 23.6931 29.3424C23.4782 28.7963 23.3739 28.213 23.3862 27.6263C23.3862 25.3917 25.5557 23.2372 27.8554 23.3073C30.2952 23.3698 32.3045 25.3116 32.2995 27.7389ZM28.7812 27.7214C28.7659 27.4935 28.6642 27.2801 28.4967 27.1247C28.3293 26.9694 28.1088 26.8838 27.8804 26.8856C27.3299 26.8856 27.0597 27.1484 27.0471 27.7214C27.0346 28.2944 27.2974 28.6222 27.7978 28.6422C28.0509 28.6464 28.2955 28.5513 28.4793 28.3773C28.6631 28.2033 28.7715 27.9643 28.7812 27.7114V27.7214Z" fill="#54BC81"/>
</svg>
